<?xml version="1.0" encoding="utf-8"?>
<!-- Generator: Adobe Illustrator 26.0.0, SVG Export Plug-In . SVG Version: 6.00 Build 0)  -->
<svg version="1.1" id="Layer_1" xmlns="http://www.w3.org/2000/svg" xmlns:xlink="http://www.w3.org/1999/xlink" x="0px" y="0px"
	 viewBox="0 0 685.8 778.1" style="enable-background:new 0 0 685.8 778.1;" xml:space="preserve">
<style type="text/css">
	.st0{clip-path:url(#SVGID_00000140695993921023563750000004816103439215602606_);}
	.st1{clip-path:url(#SVGID_00000034797132064620991200000001786786630187560837_);fill:#0022AE;}
	.st2{clip-path:url(#SVGID_00000007403202508216168400000003329707907650783636_);fill:#0022AE;}
	.st3{clip-path:url(#SVGID_00000062885976347281288120000016653957187574164666_);fill:#0022AE;}
	.st4{clip-path:url(#SVGID_00000100361647947473451530000004718114495450321338_);fill:#0022AE;}
	.st5{clip-path:url(#SVGID_00000088131757028848582850000008831176275983504794_);fill:#0022AE;}
	.st6{clip-path:url(#SVGID_00000076589022464850532010000007527102628856616885_);fill:#0022AE;}
	.st7{clip-path:url(#SVGID_00000159457305318792022500000003561024471720605074_);fill:#0022AE;}
	.st8{clip-path:url(#SVGID_00000125593503243497321720000010939730072661723312_);fill:#0022AE;}
	.st9{clip-path:url(#SVGID_00000095309848957700243270000001490618549237633445_);fill:#0022AE;}
	.st10{clip-path:url(#SVGID_00000161613589704730378520000008452452296918082694_);fill:#0022AE;}
	.st11{clip-path:url(#SVGID_00000056415929955875213600000017207297263361859997_);fill:#0022AE;}
	.st12{clip-path:url(#SVGID_00000136377358362900882190000007805594498853446582_);fill:#0022AE;}
	.st13{clip-path:url(#SVGID_00000166642047677174582950000016864737657960907420_);fill:#0022AE;}
	.st14{clip-path:url(#SVGID_00000040564835222387679990000006838239719215312266_);fill:#0022AE;}
	.st15{clip-path:url(#SVGID_00000096024413705442639120000000031945019560309638_);fill:#0022AE;}
	.st16{clip-path:url(#SVGID_00000178904010375939612890000004519494573137973411_);fill:#0022AE;}
	.st17{clip-path:url(#SVGID_00000028297632267891124350000002575959238353543830_);}
	
		.st18{clip-path:url(#SVGID_00000165212679827040781500000000525709731116489112_);fill:url(#SVGID_00000034069935003371870070000007122530953151449523_);}
	.st19{clip-path:url(#SVGID_00000110451252675766133790000008946821208190205064_);}
	
		.st20{clip-path:url(#SVGID_00000003105162810938434510000006833006187962958753_);fill:url(#SVGID_00000072990329403051703260000016019002413881217161_);}
	.st21{clip-path:url(#SVGID_00000087374307825178380510000012030774875477463966_);}
	.st22{clip-path:url(#SVGID_00000039121276804661419590000000507994832347728317_);fill:#FFC100;}
	.st23{clip-path:url(#SVGID_00000048503286748546485600000016457952031962826629_);fill:#FFC100;}
	.st24{clip-path:url(#SVGID_00000081638366887183682050000010025925547799158419_);fill:#FFC100;}
	.st25{clip-path:url(#SVGID_00000054226922481780569730000011949110671287093636_);fill:#FFC100;}
	.st26{clip-path:url(#SVGID_00000065788132191022700280000005716769753841173391_);fill:#FFC100;}
	.st27{clip-path:url(#SVGID_00000178173229806894050870000005163534990565409457_);fill:#FFC100;}
	.st28{clip-path:url(#SVGID_00000036211275972170905310000008588038130289649849_);fill:#FFC100;}
	.st29{clip-path:url(#SVGID_00000154414604629170715630000012624253087017269427_);fill:#0050B2;}
	.st30{clip-path:url(#SVGID_00000105402241247203232030000003353125307848661893_);fill:#0050B2;}
	.st31{clip-path:url(#SVGID_00000044858201388590792370000003909485140694113468_);fill:#0050B2;}
	.st32{clip-path:url(#SVGID_00000098929235991364922060000013827048410961956521_);fill:#0050B2;}
	.st33{clip-path:url(#SVGID_00000131337473282450250460000010691662461269625501_);fill:#0050B2;}
	.st34{clip-path:url(#SVGID_00000148644311407942521340000012619463613969197721_);fill:#0050B2;}
	.st35{clip-path:url(#SVGID_00000045616819186301209430000000216361200507879583_);fill:#0050B2;}
	.st36{clip-path:url(#SVGID_00000031201915500726163200000001462047612450310299_);fill:#0050B2;}
	.st37{clip-path:url(#SVGID_00000072250952849808447200000010216348510402284175_);fill:#0050B2;}
	.st38{clip-path:url(#SVGID_00000093889353161320758740000012561473607672328854_);fill:#0050B2;}
	.st39{clip-path:url(#SVGID_00000010305945873507851930000003763908144329574540_);fill:#0050B2;}
	.st40{clip-path:url(#SVGID_00000019655239485755688850000015424688999708042119_);fill:#0050B2;}
	.st41{clip-path:url(#SVGID_00000020371369046117911070000018051049673325470878_);fill:#0050B2;}
	.st42{clip-path:url(#SVGID_00000173134116035297878810000013524012046879886741_);fill:#0050B2;}
	.st43{clip-path:url(#SVGID_00000018233426878362143760000003864725327472020666_);fill:#0050B2;}
	.st44{clip-path:url(#SVGID_00000113352645971167675580000015056563368252945549_);fill:#0050B2;}
</style>
<g id="LOGOs_00000000943382100628411950000001472436299683404945_">
	<g>
		<g>
			<g>
				<g>
					<defs>
						<rect id="SVGID_1_" width="685.8" height="778.2"/>
					</defs>
					<clipPath id="SVGID_00000173853855407290445560000018316600248134326185_">
						<use xlink:href="#SVGID_1_"  style="overflow:visible;"/>
					</clipPath>
					<g style="clip-path:url(#SVGID_00000173853855407290445560000018316600248134326185_);">
						<g>
							<g>
								<defs>
									
										<rect id="SVGID_00000034794484332176361350000014134804729391711396_" x="-475.2" y="-138.1" width="1619.2" height="1047.7"/>
								</defs>
								<clipPath id="SVGID_00000170270429454337456940000015480338900490343604_">
									<use xlink:href="#SVGID_00000034794484332176361350000014134804729391711396_"  style="overflow:visible;"/>
								</clipPath>
								<path style="clip-path:url(#SVGID_00000170270429454337456940000015480338900490343604_);fill:#0022AE;" d="M206.3,635.2
									c0-14.7-13.3-20.7-30.5-20.7h-18.5v77.1h14.9v-18.5c2.4-1.8,6.8-4.5,11-7.4l12.8,25.9h15.6l-16.9-34.9
									C201.2,650.6,206.3,643.4,206.3,635.2 M172.2,656.3v-28.7h7.1c8.4,0,12.2,3.6,12.2,8.8C191.4,647.4,172.2,656.3,172.2,656.3
									"/>
							</g>
						</g>
						<g>
							<g>
								<defs>
									
										<rect id="SVGID_00000118388545865036225700000009361557493447175610_" x="-475.2" y="-138.1" width="1619.2" height="1047.7"/>
								</defs>
								<clipPath id="SVGID_00000012435730207894111630000011725848762349320098_">
									<use xlink:href="#SVGID_00000118388545865036225700000009361557493447175610_"  style="overflow:visible;"/>
								</clipPath>
								<path style="clip-path:url(#SVGID_00000012435730207894111630000011725848762349320098_);fill:#0022AE;" d="M397.3,635.2
									c0-14.7-13.3-20.7-30.5-20.7h-18.5v77.1h14.9v-18.5c2.4-1.8,6.8-4.5,11-7.4l12.8,25.9h15.6l-16.9-34.9
									C392.2,650.6,397.3,643.4,397.3,635.2 M363.2,656.3v-28.7h7.1c8.4,0,12.2,3.6,12.2,8.8C382.4,647.4,363.2,656.3,363.2,656.3
									"/>
							</g>
						</g>
						<g>
							<g>
								<defs>
									
										<rect id="SVGID_00000138568161741061281720000002465660049002680253_" x="-475.2" y="-138.1" width="1619.2" height="1047.7"/>
								</defs>
								<clipPath id="SVGID_00000010990502512818869380000004514760892259097740_">
									<use xlink:href="#SVGID_00000138568161741061281720000002465660049002680253_"  style="overflow:visible;"/>
								</clipPath>
								<path style="clip-path:url(#SVGID_00000010990502512818869380000004514760892259097740_);fill:#0022AE;" d="M544.1,635.2
									c0-14.7-13.3-20.7-30.5-20.7h-18.5v77.1H510v-18.5c2.4-1.8,6.8-4.5,11-7.4l12.8,25.9h15.6l-16.9-34.9
									C539,650.6,544.1,643.4,544.1,635.2 M510,656.3v-28.7h7.1c8.4,0,12.2,3.6,12.2,8.8C529.2,647.4,510,656.3,510,656.3"/>
							</g>
						</g>
						<g>
							<g>
								<defs>
									
										<rect id="SVGID_00000062190745133084566660000010259703636644399292_" x="-475.2" y="-138.1" width="1619.2" height="1047.7"/>
								</defs>
								<clipPath id="SVGID_00000171701118473826562350000014442803266306195868_">
									<use xlink:href="#SVGID_00000062190745133084566660000010259703636644399292_"  style="overflow:visible;"/>
								</clipPath>
								<polygon style="clip-path:url(#SVGID_00000171701118473826562350000014442803266306195868_);fill:#0022AE;" points="
									71.6,691.5 91,614.4 76,614.4 64.4,667.3 64,667.3 51.8,614.4 39.5,614.4 27.1,667.3 26.7,667.3 15.3,614.4 0,614.4 
									19.4,691.5 33.5,691.5 45.4,640.9 45.7,640.9 57.6,691.5 								"/>
							</g>
						</g>
						<g>
							<g>
								<defs>
									
										<rect id="SVGID_00000003798025397295883080000002170581974146790073_" x="-475.2" y="-138.1" width="1619.2" height="1047.7"/>
								</defs>
								<clipPath id="SVGID_00000124147324198682174600000003225432214954655654_">
									<use xlink:href="#SVGID_00000003798025397295883080000002170581974146790073_"  style="overflow:visible;"/>
								</clipPath>
								<path style="clip-path:url(#SVGID_00000124147324198682174600000003225432214954655654_);fill:#0022AE;" d="M110.3,614.4
									l-23.1,77.1h15.7l4.8-17.6h21.6l4.7,17.6h15.5l-22.8-77.1H110.3z M110.3,662.3l7.8-30.3h0.3l7.9,30.3H110.3z"/>
							</g>
						</g>
						<g>
							<g>
								<defs>
									
										<rect id="SVGID_00000059992076528360695870000011095061520607588772_" x="-475.2" y="-138.1" width="1619.2" height="1047.7"/>
								</defs>
								<clipPath id="SVGID_00000149361838445267985080000000659586261006808995_">
									<use xlink:href="#SVGID_00000059992076528360695870000011095061520607588772_"  style="overflow:visible;"/>
								</clipPath>
								<polygon style="clip-path:url(#SVGID_00000149361838445267985080000000659586261006808995_);fill:#0022AE;" points="
									260.8,661.2 231.9,614.4 219.5,614.4 219.5,691.5 234.3,691.5 234.3,644.7 234.9,644.7 263.7,691.5 276.2,691.5 
									276.2,614.4 261.3,614.4 261.3,661.2 								"/>
							</g>
						</g>
						<g>
							<g>
								<defs>
									
										<rect id="SVGID_00000067917702245769782630000008855478384392665514_" x="-475.2" y="-138.1" width="1619.2" height="1047.7"/>
								</defs>
								<clipPath id="SVGID_00000127756026006599226070000011910566615424455566_">
									<use xlink:href="#SVGID_00000067917702245769782630000008855478384392665514_"  style="overflow:visible;"/>
								</clipPath>
								<polygon style="clip-path:url(#SVGID_00000127756026006599226070000011910566615424455566_);fill:#0022AE;" points="
									337.3,677.7 306.5,677.7 306.5,658.5 329.6,658.5 329.6,645.8 306.5,645.8 306.5,628.2 336.2,628.2 336.2,614.4 
									291.6,614.4 291.6,691.5 337.3,691.5 								"/>
							</g>
						</g>
						<g>
							<g>
								<defs>
									
										<rect id="SVGID_00000013873581931344409240000017955829407674312095_" x="-475.2" y="-138.1" width="1619.2" height="1047.7"/>
								</defs>
								<clipPath id="SVGID_00000062186815374720262180000012714398437780490416_">
									<use xlink:href="#SVGID_00000013873581931344409240000017955829407674312095_"  style="overflow:visible;"/>
								</clipPath>
								<path style="clip-path:url(#SVGID_00000062186815374720262180000012714398437780490416_);fill:#0022AE;" d="M581.6,693.2
									c19.8,0,29.1-18.8,29.1-40.2s-9.3-40.2-29.1-40.2c-19.8,0-29.1,18.8-29.1,40.2C552.4,674.4,561.7,693.2,581.6,693.2
									 M581.6,626.6c11,0,14.3,13.4,14.3,26.4s-3.2,26.4-14.3,26.4c-11,0-14.2-13.4-14.2-26.4S570.5,626.6,581.6,626.6"/>
							</g>
						</g>
						<g>
							<g>
								<defs>
									
										<rect id="SVGID_00000148627150489155562900000011686750158570109336_" x="-475.2" y="-138.1" width="1619.2" height="1047.7"/>
								</defs>
								<clipPath id="SVGID_00000157284439712528008290000010703674372202704054_">
									<use xlink:href="#SVGID_00000148627150489155562900000011686750158570109336_"  style="overflow:visible;"/>
								</clipPath>
								<path style="clip-path:url(#SVGID_00000157284439712528008290000010703674372202704054_);fill:#0022AE;" d="M645,646.9
									c-6-3.9-12.2-6.6-12.2-13.2c0-4.4,3.9-7.7,8.3-7.7c4.9,0,10,3.3,11.6,6l9.4-8.8c-4.4-6-12.2-10.5-21.5-10.5
									c-13.7,0-22.7,8.3-22.7,20.9c0,13.7,10,19.8,18,24.5c6.3,3.6,12.4,6.4,12.4,13c0,5.5-5,8.8-10.5,8.8s-11.1-3.3-14.4-8.3
									l-8.8,8.8c4.9,7.7,14.9,12.7,23.8,12.7c13.7,0,24.8-8.8,24.8-22C663.3,657.4,653,651.9,645,646.9"/>
							</g>
						</g>
						<g>
							<g>
								<defs>
									
										<rect id="SVGID_00000018922866405343921650000013541539385036535453_" x="-475.2" y="-138.1" width="1619.2" height="1047.7"/>
								</defs>
								<clipPath id="SVGID_00000145055489654561397650000008879806830745836951_">
									<use xlink:href="#SVGID_00000018922866405343921650000013541539385036535453_"  style="overflow:visible;"/>
								</clipPath>
								<path style="clip-path:url(#SVGID_00000145055489654561397650000008879806830745836951_);fill:#0022AE;" d="M677.5,676.1
									c-4.9,0-8.3,3.9-8.3,8.3c0,4.4,3.3,8.3,8.3,8.3c4.9,0,8.3-3.9,8.3-8.3C685.8,680,682.5,676.1,677.5,676.1"/>
							</g>
						</g>
						<g>
							<g>
								<defs>
									
										<rect id="SVGID_00000124863681116568532570000003627968445651909033_" x="-475.2" y="-138.1" width="1619.2" height="1047.7"/>
								</defs>
								<clipPath id="SVGID_00000054983784057366317190000012896245696926387878_">
									<use xlink:href="#SVGID_00000124863681116568532570000003627968445651909033_"  style="overflow:visible;"/>
								</clipPath>
								<path style="clip-path:url(#SVGID_00000054983784057366317190000012896245696926387878_);fill:#0022AE;" d="M472.8,646.2
									c4-4.3,6.6-9.3,6.6-14.9c0-11-9.4-16.8-22.9-16.9h-23.7v77.1h14.9c24.2-0.7,36.7-10.5,36.7-25.4
									C484.3,655.1,475,647.8,472.8,646.2 M447.6,627.3h7.2c6.8,0,10.3,1.8,10.3,5.6c0,7-14.6,13.1-17.5,14.3V627.3L447.6,627.3z
									 M447.6,677.9v-16.1c4.8-1.9,10.2-4.5,15.2-7.6c2.3,1.5,7.4,5.6,7.4,11.3C470.2,673.1,463.4,677.6,447.6,677.9"/>
							</g>
						</g>
						<g>
							<g>
								<defs>
									
										<rect id="SVGID_00000136381761970106079750000003882360897886881413_" x="-475.2" y="-138.1" width="1619.2" height="1047.7"/>
								</defs>
								<clipPath id="SVGID_00000082354373187748405920000007945514100033737918_">
									<use xlink:href="#SVGID_00000136381761970106079750000003882360897886881413_"  style="overflow:visible;"/>
								</clipPath>
								<path style="clip-path:url(#SVGID_00000082354373187748405920000007945514100033737918_);fill:#0022AE;" d="M289.4,725.1h11
									l15.4,52h-10.5l-3.2-11.9h-14.6l-3.2,11.9h-10.6L289.4,725.1z M300.2,757.4l-5.4-20.4h-0.2l-5.3,20.4H300.2z"/>
							</g>
						</g>
						<g>
							<g>
								<defs>
									
										<rect id="SVGID_00000086685002567176516930000008254967170968295599_" x="-475.2" y="-138.1" width="1619.2" height="1047.7"/>
								</defs>
								<clipPath id="SVGID_00000098915845682197752440000006042107561621639611_">
									<use xlink:href="#SVGID_00000086685002567176516930000008254967170968295599_"  style="overflow:visible;"/>
								</clipPath>
								<polygon style="clip-path:url(#SVGID_00000098915845682197752440000006042107561621639611_);fill:#0022AE;" points="
									375.3,725.1 405.4,725.1 405.4,734.4 385.3,734.4 385.3,746.3 400.9,746.3 400.9,754.8 385.3,754.8 385.3,767.8 
									406.1,767.8 406.1,777.1 375.3,777.1 								"/>
							</g>
						</g>
						<g>
							<g>
								<defs>
									
										<rect id="SVGID_00000104691437807531875460000012976534915125758353_" x="-475.2" y="-138.1" width="1619.2" height="1047.7"/>
								</defs>
								<clipPath id="SVGID_00000111893329176179285080000000014109240249662337_">
									<use xlink:href="#SVGID_00000104691437807531875460000012976534915125758353_"  style="overflow:visible;"/>
								</clipPath>
								<path style="clip-path:url(#SVGID_00000111893329176179285080000000014109240249662337_);fill:#0022AE;" d="M230.7,751.1
									c0-15.6,8.9-27.1,22.3-27.1c8.2,0,14.3,4.1,18.2,10.4l-6.9,5.6c-1.5-3-5.4-6.7-10.9-6.7c-7.8,0-12.6,7.4-12.6,17.9
									c0,10.4,4.8,17.9,12.3,17.9c5.6,0,8.2-3,8.9-3.7v-8.9h-7.8v-7.1h17.1v19c-1.8,3-7.4,10-18.2,10
									C239.6,778.2,230.7,766.7,230.7,751.1"/>
							</g>
						</g>
						<g>
							<g>
								<defs>
									
										<rect id="SVGID_00000064314825263869012790000018136257546096787616_" x="-475.2" y="-138.1" width="1619.2" height="1047.7"/>
								</defs>
								<clipPath id="SVGID_00000129913840740229001390000011393338585728478136_">
									<use xlink:href="#SVGID_00000064314825263869012790000018136257546096787616_"  style="overflow:visible;"/>
								</clipPath>
								<polygon style="clip-path:url(#SVGID_00000129913840740229001390000011393338585728478136_);fill:#0022AE;" points="
									320.8,725.1 329.3,725.1 343,747.5 343.2,747.5 356.8,725.1 365.3,725.1 365.3,777.1 355.3,777.1 355.3,744.3 355.1,744.3 
									343,764.1 330.9,744.3 330.8,744.3 330.8,777.1 320.8,777.1 								"/>
							</g>
						</g>
						<g>
							<g>
								<defs>
									
										<rect id="SVGID_00000045620599736861181120000005504165410801450379_" x="-475.2" y="-138.1" width="1619.2" height="1047.7"/>
								</defs>
								<clipPath id="SVGID_00000003065065736914274430000000292259247528893870_">
									<use xlink:href="#SVGID_00000045620599736861181120000005504165410801450379_"  style="overflow:visible;"/>
								</clipPath>
								<path style="clip-path:url(#SVGID_00000003065065736914274430000000292259247528893870_);fill:#0022AE;" d="M410,769.6l6-6
									c2.2,3.3,5.6,5.6,9.3,5.6s6.7-2.2,6.7-6c0-4.5-3.7-6.3-7.9-8.8c-5.4-3.1-11.7-7.2-11.7-16.5c0-8.5,5.6-14.1,14.9-14.1
									c6.3,0,11.2,3,14.1,7.1l-6.3,6c-1.1-1.8-4.1-4.1-7.4-4.1c-3,0-5.2,2.2-5.2,5.2c0,4.5,3.7,6.3,7.8,8.9
									c5.4,3.3,11.9,7.1,11.9,16.3c0,8.9-7.1,14.9-16.3,14.9C419.6,778.2,413.3,774.9,410,769.6"/>
							</g>
						</g>
					</g>
				</g>
			</g>
			<g>
				<g>
					<defs>
						<rect id="SVGID_00000116935324065472743780000015451262164105939886_" width="685.8" height="778.2"/>
					</defs>
					<clipPath id="SVGID_00000066509166655998726790000010231473282035551931_">
						<use xlink:href="#SVGID_00000116935324065472743780000015451262164105939886_"  style="overflow:visible;"/>
					</clipPath>
					<g style="clip-path:url(#SVGID_00000066509166655998726790000010231473282035551931_);">
						<g>
							<g>
								<defs>
									<path id="SVGID_00000173147397960845932430000012066860529411393428_" d="M282.8,328.1l-0.4-46.1
										c12.2-0.7,24.5-1.2,36.7-1.4v173.2c-25-26.6-47.7-59.9-63.9-93.6l-33,19.7c-22.3-24.7-41-52.5-56.3-84.2
										c12.3-2.2,24.6-4.2,36.9-6c7.3,14.2,15.5,27.6,24.5,40.2l12-7c-4.4-12-8.4-24.1-12-36.4c12.8-1.5,25.6-2.7,38.4-3.6
										c4.7,16.1,9.8,31.5,15.6,46L282.8,328.1z M354.2,280.5c12.4,0.2,24.8,0.7,37.1,1.4v100.2c18.9-14.6,36.3-33.3,46.9-45.5
										c13.7-15.8,25.8-32.1,33.8-46.7c12,1.7,24.1,3.6,36.1,5.8c-26.9,55.8-94.8,127.6-153.9,158.1L354.2,280.5L354.2,280.5z
										 M62.1,309.6c-5.1,2.1-8.7,2.6-10.4,4.1c-0.5,0.4-0.7,1.1-0.6,1.7c0.1,0.5,0.6,1,1,1.2c3.2,1.8,9.5,4.5,21.6,7.7
										c7.7,2,16.7,3.9,26.9,5.7c-3-5.9-5.9-11.9-8.7-17.9c11-2.9,22.1-5.6,33.2-8.1c2.9,6.2,6,12.4,9.4,18.7l0,0
										c8.8,16.3,19.2,33.1,31.6,49.8c62.8,85.3,145.4,126.8,170.4,139.5c25-12.8,107.5-54.2,170.4-139.5
										c17.3-23.3,30.7-46.6,41.2-68.7c11.1,2.5,22.2,5.2,33.3,8.1c-2.8,6.1-5.8,12.2-8.8,18.2c10.5-1.8,19.7-3.7,27.6-5.8
										c12.3-3.2,18.5-5.6,22-7.8c0.6-0.4,1-1,0.9-1.7c0-0.5-0.3-1-0.7-1.3c-1.7-1.3-5.5-2.2-10.4-4.1
										c-89.7-26.7-182.3-40.1-274.9-40.1C244.4,269.5,151.8,282.9,62.1,309.6"/>
								</defs>
								<clipPath id="SVGID_00000124144008034097969480000009674442765263123080_">
									<use xlink:href="#SVGID_00000173147397960845932430000012066860529411393428_"  style="overflow:visible;"/>
								</clipPath>
								
									<linearGradient id="SVGID_00000075133200548555315120000015272356955464570520_" gradientUnits="userSpaceOnUse" x1="44.9917" y1="-193.8947" x2="46.3148" y2="-193.8947" gradientTransform="matrix(432.4092 0 0 -432.4092 -19403.8398 -83451.0625)">
									<stop  offset="0" style="stop-color:#4047FF"/>
									<stop  offset="1" style="stop-color:#04006C"/>
								</linearGradient>
								
									<rect x="51" y="269.5" style="clip-path:url(#SVGID_00000124144008034097969480000009674442765263123080_);fill:url(#SVGID_00000075133200548555315120000015272356955464570520_);" width="572.1" height="242.6"/>
							</g>
						</g>
					</g>
				</g>
			</g>
			<g>
				<g>
					<defs>
						<rect id="SVGID_00000052083975722845963990000012203146619492329879_" width="685.8" height="778.2"/>
					</defs>
					<clipPath id="SVGID_00000085226733195920077160000017798838138882480012_">
						<use xlink:href="#SVGID_00000052083975722845963990000012203146619492329879_"  style="overflow:visible;"/>
					</clipPath>
					<g style="clip-path:url(#SVGID_00000085226733195920077160000017798838138882480012_);">
						<g>
							<g>
								<defs>
									<path id="SVGID_00000032619268403216660380000011220435078625841042_" d="M131.5,197c9.5-11.1,19.2-20.9,29.1-29.8
										c5,22.6,10.9,43.9,17.7,64c-11.8,2-23.6,4.2-35.3,6.6C138.7,224.8,134.9,211.2,131.5,197 M201.1,136.4
										c12.8-8.1,25.4-14.7,37.1-20c2.1,35.7,6.4,71.4,12.9,105.5c-12.8,1.2-25.7,2.6-38.5,4.2C207.3,197.7,203.5,168,201.1,136.4
										 M281,101c12.8-3.3,25.4-5.5,38.1-6.7v124c-12.4,0.2-24.8,0.7-37.2,1.4L281,101z M354.2,218.2V94.3
										c18.6,0.8,36.6,3.6,53.9,8.3c30.1,8.4,50.7,18.8,64.2,27.4c22.3,14.2,37.6,30.7,37.6,49.3c0,13.1-2.9,23.9-16.3,38.8
										c9.6,4.7,16.6,10,20.9,16.5c-30.1-5.7-60.5-9.9-90.9-12.6l15-8.1c23.8-12.5,31.5-24.9,31.5-33.6c0-24-60.2-43-78.8-43v82.4
										C379,218.9,366.6,218.5,354.2,218.2 M163.3,83.2v27.9l-37.2,20.2v27.9l-37.6,20.1c1.8,12.3,5.5,37.9,15.5,70.3
										c152.7-38.1,312.5-38.2,465.2-0.2c10-32.3,13.7-57.8,15.5-70.1l-37.6-20.1v-27.9L510,111.1V83.2
										c-51.4-24.5-108.1-40.7-173.4-49.4C271.4,42.5,214.8,58.7,163.3,83.2"/>
								</defs>
								<clipPath id="SVGID_00000026868691480984144640000003876778284041308041_">
									<use xlink:href="#SVGID_00000032619268403216660380000011220435078625841042_"  style="overflow:visible;"/>
								</clipPath>
								
									<linearGradient id="SVGID_00000128453375544665201140000004358759539392410523_" gradientUnits="userSpaceOnUse" x1="44.8777" y1="-194.0205" x2="46.2005" y2="-194.0205" gradientTransform="matrix(375.1169 0 0 -375.1169 -16745.7949 -72638.6328)">
									<stop  offset="0" style="stop-color:#4047FF"/>
									<stop  offset="1" style="stop-color:#04006C"/>
								</linearGradient>
								
									<rect x="88.6" y="33.9" style="clip-path:url(#SVGID_00000026868691480984144640000003876778284041308041_);fill:url(#SVGID_00000128453375544665201140000004358759539392410523_);" width="496.2" height="215.7"/>
							</g>
						</g>
					</g>
				</g>
			</g>
			<g>
				<g>
					<defs>
						<rect id="SVGID_00000153681654216925345500000014921570646832785314_" width="685.8" height="778.2"/>
					</defs>
					<clipPath id="SVGID_00000141438948504259159760000014941781057595131583_">
						<use xlink:href="#SVGID_00000153681654216925345500000014921570646832785314_"  style="overflow:visible;"/>
					</clipPath>
					<g style="clip-path:url(#SVGID_00000141438948504259159760000014941781057595131583_);">
						<g>
							<g>
								<defs>
									
										<rect id="SVGID_00000017517717406050207260000001974921168904103605_" x="-475.2" y="-138.1" width="1619.2" height="1047.7"/>
								</defs>
								<clipPath id="SVGID_00000022555014221780613130000005958479919403406976_">
									<use xlink:href="#SVGID_00000017517717406050207260000001974921168904103605_"  style="overflow:visible;"/>
								</clipPath>
								<path style="clip-path:url(#SVGID_00000022555014221780613130000005958479919403406976_);fill:#FFC100;" d="M634.6,316.6
									L634.6,316.6v-38.3c0-8.7-8.6-13.1-32.8-20.2c7.3-23.9,12.7-48.6,16.3-74.2l3.2-23.1l-40.4-21.7v-27.8l-37.2-20.2V62
									l-19.1-9.1C470.4,27.1,410.4,9.8,341.3,0.6L336.8,0l-4.5,0.6c-69.2,9.2-129.1,26.5-183.4,52.3L129.8,62v29.1l-37.2,20.2
									v27.8l-40.4,21.7l3.2,23.1c3.6,25.6,9,50.4,16.3,74.4c-25.3,7.4-32.1,11.3-32.1,20c0,12.8,0,25.6,0,38.3l0,0
									c0,0.1,0,0.2,0,0.3c0,9.4,25.2,18,67.3,24.7c9.6,17.6,20.4,34.6,32.5,50.8c45.5,61.5,106.8,111.9,182.5,149.6l14.9,7.5
									l14.9-7.5c75.6-37.8,137-88.1,182.5-149.6c12-16.2,22.8-33.2,32.4-50.7c42.5-6.7,68.1-15.4,68.1-24.9
									C634.6,316.8,634.6,316.7,634.6,316.6 M126.1,159.2v-27.9l37.2-20.2V83.2c51.5-24.5,108.1-40.7,173.4-49.4l0,0
									c0.1,0,0.3,0,0.4,0c3.9,0.5,7.8,1.1,11.8,1.7c0.4,0,0.8,0.1,1.2,0.2c3.6,0.6,7.2,1.1,10.8,1.7c0.1,0,0.2,0,0.4,0
									c19.6,3.3,38.4,7.3,56.6,12.1c1.1,0.3,2.1,0.6,3.1,0.9c2.6,0.7,5.2,1.4,7.7,2.1c0.3,0.1,0.6,0.2,0.8,0.2
									c3.3,1,6.6,1.9,9.9,2.9c0.8,0.2,1.6,0.5,2.4,0.7c2.7,0.8,5.5,1.7,8.2,2.6c0.9,0.3,1.8,0.6,2.6,0.9c6.1,2,12.1,4.2,18,6.4
									c1.7,0.6,3.4,1.3,5.1,2c1.7,0.6,3.4,1.3,5,1.9c10.1,4,19.9,8.3,29.5,12.9v27.9l37.2,20.2v28l37.6,20.1
									c-0.6,3.8-1.3,9-2.4,15.2c-0.4,2.5-0.9,5.2-1.4,8c-0.6,3.4-1.4,7-2.2,10.8c-0.2,1.2-0.5,2.3-0.8,3.5
									c-2.2,9.7-5,20.7-8.7,32.5l0,0c-85.6-21.3-173.5-30.6-261.1-28c-0.3,0-0.6,0-0.8,0c-4.6,0.1-9.3,0.3-13.9,0.6
									c-0.2,0-0.5,0-0.7,0c-4.2,0.2-8.4,0.4-12.6,0.7c-0.6,0-1.3,0-2,0.1c-4.2,0.3-8.4,0.6-12.6,0.9c-0.7,0-1.3,0.1-2,0.1
									c-3.9,0.3-7.8,0.6-11.6,1c-1,0.1-2,0.1-3,0.2c-3.9,0.4-7.7,0.7-11.6,1.2c-1,0.1-2,0.2-3,0.3c-3.6,0.4-7.1,0.8-10.7,1.2
									c-1.3,0.1-2.6,0.3-3.9,0.5c-3.5,0.4-7,0.9-10.5,1.4c-1.3,0.2-2.7,0.3-4.1,0.5c-3.3,0.5-6.5,0.9-9.8,1.4
									c-1.6,0.2-3.2,0.5-4.8,0.7c-3.7,0.6-7.4,1.2-11.1,1.8c-1.1,0.2-2.3,0.4-3.4,0.6c-3.6,0.6-7.2,1.2-10.8,1.9
									c-1.2,0.2-2.4,0.4-3.7,0.6c-3.5,0.6-7,1.3-10.6,2c-1.3,0.3-2.6,0.5-3.9,0.7c-3.3,0.6-6.6,1.4-9.9,2.1
									c-1.5,0.3-3,0.6-4.5,0.9c-3.6,0.8-7.2,1.6-10.9,2.4c-1.2,0.3-2.4,0.5-3.5,0.8c-3.6,0.8-7.1,1.7-10.7,2.6
									c-1.2,0.3-2.4,0.6-3.7,0.9C94,216.9,90.4,191.4,88.6,179L126.1,159.2z M622.2,316.6c-3.4,2.1-9.6,4.6-22,7.8
									c-7.8,2-17.1,4-27.6,5.8c3-6,6-12.1,8.8-18.2c-11-2.9-22.1-5.6-33.3-8.1c-10.4,22.1-23.9,45.5-41.2,68.7c-2,2.7-4,5.3-6,7.9
									c-0.2,0.3-0.4,0.6-0.6,0.8c-0.8,1-1.6,2-2.4,3c-0.3,0.3-0.5,0.6-0.8,1c-0.7,0.9-1.5,1.9-2.3,2.8c-1.5,1.9-3,3.7-4.6,5.5
									s-3.1,3.6-4.7,5.4c-0.3,0.4-0.7,0.8-1,1.2c-0.7,0.8-1.4,1.6-2.1,2.4c-0.2,0.2-0.4,0.5-0.6,0.7c-0.8,0.9-1.7,1.8-2.5,2.8
									c-0.2,0.2-0.5,0.5-0.7,0.7c-0.8,0.9-1.7,1.8-2.5,2.7c-0.1,0.1-0.3,0.3-0.4,0.4c-0.9,1-1.8,2-2.8,2.9
									c-0.6,0.6-1.1,1.2-1.6,1.7s-1,1.1-1.5,1.6c-0.6,0.6-1.1,1.2-1.7,1.7c-0.5,0.5-1,1-1.5,1.5c-0.5,0.6-1.1,1.1-1.6,1.6
									s-1.1,1.1-1.6,1.6c-0.4,0.4-0.7,0.7-1.1,1.1c-0.7,0.7-1.4,1.3-2.1,2c-0.1,0.1-0.1,0.1-0.2,0.2c-1,1-2,1.9-3,2.8
									c-0.2,0.2-0.5,0.5-0.7,0.7c-0.8,0.8-1.6,1.5-2.4,2.3l-0.1,0.1c-1,0.9-2,1.8-3,2.8c-0.2,0.2-0.4,0.3-0.6,0.5
									c-0.9,0.8-1.8,1.6-2.6,2.4c-0.4,0.4-0.8,0.7-1.2,1.1c-0.6,0.6-1.3,1.1-1.9,1.7c-0.5,0.4-0.9,0.8-1.4,1.2
									c-0.6,0.5-1.2,1.1-1.8,1.6c-0.3,0.3-0.6,0.6-1,0.8c-0.7,0.6-1.4,1.2-2.2,1.8c-0.3,0.3-0.6,0.6-1,0.8
									c-0.7,0.6-1.5,1.2-2.2,1.8c-0.3,0.2-0.6,0.5-0.8,0.6c-0.8,0.6-1.6,1.3-2.3,1.9c-0.4,0.3-0.7,0.6-1.1,0.9
									c-0.7,0.6-1.4,1.1-2.1,1.7c-0.4,0.3-0.7,0.6-1.1,0.9c-0.6,0.6-1.3,1.1-2,1.6c-0.6,0.5-1.2,0.9-1.8,1.4
									c-0.4,0.3-0.8,0.7-1.3,1c-0.6,0.4-1.1,0.9-1.7,1.3c-0.5,0.4-0.9,0.7-1.4,1.1c-0.4,0.3-0.9,0.6-1.3,1
									c-0.6,0.5-1.2,0.9-1.8,1.3c-0.3,0.2-0.6,0.5-1,0.7c-0.7,0.5-1.4,1-2.1,1.5c-0.3,0.2-0.6,0.4-0.9,0.6
									c-0.7,0.5-1.4,1.1-2.1,1.6c-0.5,0.3-1,0.7-1.4,1c-0.5,0.4-1.1,0.7-1.6,1.1c-0.4,0.3-0.8,0.6-1.2,0.9
									c-0.6,0.4-1.1,0.8-1.7,1.2c-0.4,0.3-0.8,0.6-1.2,0.8c-0.6,0.4-1.2,0.8-1.7,1.2c-0.2,0.1-0.4,0.3-0.6,0.4
									c-0.7,0.5-1.5,1.1-2.3,1.6c-0.2,0.1-0.4,0.3-0.6,0.4c-0.7,0.5-1.5,1-2.2,1.5c-0.4,0.2-0.7,0.5-1.1,0.7
									c-0.6,0.4-1.2,0.8-1.8,1.2c-0.4,0.3-0.8,0.6-1.2,0.8c-0.5,0.3-1.1,0.7-1.6,1c-0.4,0.2-0.7,0.5-1.1,0.7
									c-0.6,0.4-1.1,0.7-1.7,1.1c-0.2,0.1-0.4,0.3-0.6,0.4c-0.7,0.5-1.4,0.9-2.1,1.3c-0.3,0.2-0.6,0.4-0.9,0.6
									c-0.6,0.4-1.2,0.7-1.8,1.1c-0.5,0.3-0.9,0.6-1.4,0.9c-0.4,0.3-0.8,0.5-1.2,0.8c-0.4,0.2-0.7,0.5-1.1,0.7
									c-0.5,0.3-1,0.6-1.5,0.9c-0.3,0.2-0.6,0.3-0.9,0.5c-0.6,0.3-1.1,0.7-1.7,1c-0.2,0.1-0.4,0.3-0.6,0.4
									c-0.6,0.4-1.2,0.7-1.8,1.1c-0.3,0.2-0.6,0.4-1,0.6c-0.5,0.3-1,0.6-1.4,0.8c-0.2,0.1-0.5,0.3-0.7,0.4c-0.6,0.3-1.1,0.6-1.7,1
									c-0.3,0.1-0.6,0.3-0.8,0.5c-0.5,0.3-1,0.6-1.5,0.9c-0.2,0.1-0.4,0.2-0.6,0.3c-0.6,0.3-1.2,0.6-1.7,1
									c-0.1,0.1-0.3,0.1-0.4,0.2c-0.6,0.3-1.2,0.7-1.8,1c-0.3,0.1-0.6,0.3-0.8,0.5c-0.5,0.2-0.9,0.5-1.3,0.7
									c-0.3,0.2-0.6,0.4-1,0.5c-0.4,0.2-0.7,0.4-1.1,0.6c-0.4,0.2-0.7,0.4-1.1,0.6c-0.3,0.2-0.6,0.4-1,0.6
									c-0.3,0.1-0.5,0.3-0.7,0.4c-0.4,0.2-0.8,0.5-1.2,0.6c-1.1,0.6-2.1,1.1-3.1,1.7c-0.2,0.1-0.4,0.2-0.6,0.3
									c-0.5,0.2-0.9,0.5-1.3,0.7c-0.1,0.1-0.3,0.1-0.4,0.2c-0.5,0.3-1,0.5-1.5,0.8c0,0-0.1,0-0.2,0.1c-1.4,0.7-2.8,1.4-4.1,2.1
									c-1.6,0.8-3,1.6-4.3,2.2c0,0-0.1,0-0.1,0.1c-24.9-12.7-107.5-54.2-170.4-139.6c-12.5-16.7-22.9-33.5-31.6-49.8l0,0
									c-0.8-1.6-1.7-3.1-2.5-4.7c0,0,0,0,0-0.1c-0.8-1.5-1.5-3-2.3-4.4c0-0.1-0.1-0.2-0.2-0.4c-0.7-1.3-1.3-2.7-2-4
									c-0.1-0.2-0.2-0.5-0.4-0.7c-0.7-1.5-1.4-3-2.2-4.5c-11.1,2.5-22.1,5.2-33.2,8.1c2.7,6,5.6,12,8.7,17.9
									c-10.2-1.8-19.3-3.7-26.9-5.7c-12.1-3.1-18.4-5.9-21.6-7.7c-0.4-0.2-0.9-0.8-1-1.2c-0.1-0.6,0.1-1.3,0.6-1.7
									c1.7-1.5,5.3-2,10.4-4.1c18.5-5.5,37.2-10.5,56-14.9l0,0c0.4-0.1,0.8-0.2,1.2-0.3c3.9-0.9,7.8-1.8,11.7-2.6
									c0.7-0.1,1.4-0.3,2.1-0.5c3.6-0.8,7.1-1.5,10.6-2.3c0.5-0.1,1-0.2,1.4-0.3l0,0c0.2,0,0.5-0.1,0.6-0.1
									c3.9-0.8,7.8-1.6,11.8-2.3c0.9-0.2,1.8-0.3,2.7-0.5c3.8-0.7,7.6-1.4,11.3-2.1c0.2,0,0.4-0.1,0.6-0.1l0,0h0.1
									c4.6-0.8,9.2-1.6,13.8-2.3c0.7-0.1,1.4-0.2,2.1-0.3c4.4-0.7,8.9-1.3,13.3-2c0.8-0.1,1.7-0.2,2.5-0.4
									c4.4-0.6,8.9-1.2,13.3-1.8c0.7-0.1,1.5-0.2,2.2-0.3c4.6-0.6,9.2-1.1,13.7-1.6c0.3,0,0.6,0,1-0.1c4.5-0.5,9.1-0.9,13.7-1.4
									c0.5,0,1-0.1,1.5-0.1c4.5-0.4,9.1-0.8,13.6-1.2c0.8,0,1.6-0.1,2.4-0.2c4.4-0.3,8.9-0.6,13.3-0.9c0.8,0,1.6-0.1,2.4-0.1
									c4.5-0.3,9-0.5,13.5-0.7c0.2,0,0.4,0,0.6,0c0,0,0,0,0.1,0c0.5,0,1,0,1.5,0c3.6-0.1,7.1-0.3,10.7-0.4c0.7,0,1.4,0,2.1,0
									c4-0.1,7.9-0.2,11.9-0.3c0.4,0,0.7,0,1.1,0c0,0,0.1,0,0.2,0c0.5,0,1,0,1.5,0c3.9,0,7.8-0.1,11.6-0.1c0.2,0,0.4,0,0.6,0
									c4,0,8,0,12,0.1c0.5,0,1,0,1.5,0h0.1c0.4,0,0.8,0,1.2,0c4.4,0,8.9,0.2,13.3,0.3c0.8,0,1.6,0,2.3,0.1
									c4.6,0.1,9.1,0.3,13.7,0.5c0.4,0,0.9,0,1.3,0c4.5,0.2,9.1,0.5,13.6,0.7c0.4,0,0.8,0,1.2,0.1c4.6,0.3,9.1,0.6,13.7,1
									c0.8,0,1.5,0.1,2.3,0.2c4.4,0.4,8.9,0.7,13.3,1.2c0.8,0.1,1.7,0.1,2.4,0.2c4.5,0.4,9,0.9,13.4,1.4c0.6,0.1,1.3,0.1,1.9,0.2
									c4.7,0.5,9.4,1.1,14.1,1.7c0.1,0,0.1,0,0.2,0c4.7,0.6,9.3,1.2,13.9,1.9c0.4,0,0.8,0.1,1.2,0.2c0.1,0,0.1,0,0.2,0
									c0.2,0,0.4,0,0.6,0.1c3.9,0.6,7.8,1.2,11.7,1.8c0.9,0.1,1.8,0.3,2.7,0.4c3.8,0.6,7.6,1.2,11.3,1.9c0.2,0,0.4,0,0.6,0.1
									c0.1,0,0.2,0,0.3,0l0,0c4,0.7,7.9,1.4,11.9,2.2c0.9,0.2,1.9,0.4,2.8,0.5c3.9,0.7,7.8,1.5,11.7,2.3c0.1,0,0.3,0,0.5,0.1
									c0.1,0,0.2,0,0.2,0c0.5,0.1,0.9,0.2,1.4,0.3c3.5,0.7,7,1.4,10.4,2.2c0.9,0.2,1.7,0.4,2.6,0.6c3.8,0.8,7.7,1.7,11.4,2.6
									c0.4,0.1,0.7,0.1,1.1,0.2l0,0l0,0c19,4.4,37.9,9.4,56.6,15c4.9,1.9,8.8,2.7,10.4,4.1c0.4,0.3,0.7,0.8,0.7,1.3
									C623.1,315.6,622.8,316.2,622.2,316.6"/>
							</g>
						</g>
						<g>
							<g>
								<defs>
									
										<rect id="SVGID_00000111151064566248322920000017924089205601079693_" x="-475.2" y="-138.1" width="1619.2" height="1047.7"/>
								</defs>
								<clipPath id="SVGID_00000011742541774721647340000007328891263550854570_">
									<use xlink:href="#SVGID_00000111151064566248322920000017924089205601079693_"  style="overflow:visible;"/>
								</clipPath>
								<path style="clip-path:url(#SVGID_00000011742541774721647340000007328891263550854570_);fill:#FFC100;" d="M178.2,231
									c-6.8-20.1-12.7-41.4-17.7-64c-9.8,8.8-19.6,18.7-29.1,29.8c3.5,14.3,7.2,27.9,11.4,40.9C154.7,235.2,166.4,233,178.2,231"
									/>
							</g>
						</g>
						<g>
							<g>
								<defs>
									
										<rect id="SVGID_00000022521801293365723680000008242576722075614887_" x="-475.2" y="-138.1" width="1619.2" height="1047.7"/>
								</defs>
								<clipPath id="SVGID_00000094576228687116626380000012491621279789360528_">
									<use xlink:href="#SVGID_00000022521801293365723680000008242576722075614887_"  style="overflow:visible;"/>
								</clipPath>
								<path style="clip-path:url(#SVGID_00000094576228687116626380000012491621279789360528_);fill:#FFC100;" d="M319.2,218V94
									c-12.7,1.2-25.3,3.4-38.1,6.7l0.9,118.6C294.4,218.7,306.8,218.2,319.2,218"/>
							</g>
						</g>
						<g>
							<g>
								<defs>
									
										<rect id="SVGID_00000060002805362884158550000005234751629420771514_" x="-475.2" y="-138.1" width="1619.2" height="1047.7"/>
								</defs>
								<clipPath id="SVGID_00000003822947930466594440000003528394482360520865_">
									<use xlink:href="#SVGID_00000060002805362884158550000005234751629420771514_"  style="overflow:visible;"/>
								</clipPath>
								<path style="clip-path:url(#SVGID_00000003822947930466594440000003528394482360520865_);fill:#FFC100;" d="M251.2,221.7
									c-6.5-34.1-10.7-69.8-12.9-105.5c-11.8,5.3-24.3,11.9-37.1,20c2.4,31.6,6.1,61.3,11.5,89.7
									C225.5,224.2,238.3,222.9,251.2,221.7"/>
							</g>
						</g>
						<g>
							<g>
								<defs>
									
										<rect id="SVGID_00000000192947461397967140000012602306348241210555_" x="-475.2" y="-138.1" width="1619.2" height="1047.7"/>
								</defs>
								<clipPath id="SVGID_00000178163758309015863480000006726395982350384522_">
									<use xlink:href="#SVGID_00000000192947461397967140000012602306348241210555_"  style="overflow:visible;"/>
								</clipPath>
								<path style="clip-path:url(#SVGID_00000178163758309015863480000006726395982350384522_);fill:#FFC100;" d="M391.4,137
									c18.6,0,78.8,19,78.8,43c0,8.7-7.7,21.1-31.5,33.6l-15,8.1c30.4,2.8,60.8,7,90.9,12.6c-4.3-6.6-11.3-11.9-20.9-16.5
									c13.5-14.9,16.3-25.7,16.3-38.8c0-18.5-15.3-35.1-37.6-49.3c-13.5-8.6-34.1-19-64.2-27.4c-17.3-4.7-35.3-7.5-53.9-8.3v124
									c12.4,0.2,24.8,0.7,37.1,1.4V137L391.4,137z"/>
							</g>
						</g>
						<g>
							<g>
								<defs>
									
										<rect id="SVGID_00000054234870556572032210000003104057964567165344_" x="-475.2" y="-138.1" width="1619.2" height="1047.7"/>
								</defs>
								<clipPath id="SVGID_00000103950348023194583770000007845260790884025781_">
									<use xlink:href="#SVGID_00000054234870556572032210000003104057964567165344_"  style="overflow:visible;"/>
								</clipPath>
								<path style="clip-path:url(#SVGID_00000103950348023194583770000007845260790884025781_);fill:#FFC100;" d="M282.8,327.9
									l-1.6,0.9c-5.8-14.5-10.9-29.9-15.6-46c-12.8,1-25.6,2.2-38.4,3.6c3.6,12.3,7.6,24.4,12,36.4l-12,7
									c-9-12.6-17.1-26-24.5-40.2c-12.3,1.8-24.6,3.7-36.9,6c15.4,31.7,34,59.4,56.3,84.2l33-19.7c16.2,33.7,38.9,67,63.9,93.6
									V280.3c-12.3,0.2-24.5,0.7-36.7,1.4L282.8,327.9z"/>
							</g>
						</g>
						<g>
							<g>
								<defs>
									
										<rect id="SVGID_00000135674423610268866910000003690869282550813347_" x="-475.2" y="-138.1" width="1619.2" height="1047.7"/>
								</defs>
								<clipPath id="SVGID_00000088842710893533188790000006441943453443441567_">
									<use xlink:href="#SVGID_00000135674423610268866910000003690869282550813347_"  style="overflow:visible;"/>
								</clipPath>
								<path style="clip-path:url(#SVGID_00000088842710893533188790000006441943453443441567_);fill:#FFC100;" d="M438.3,336.4
									c-10.7,12.3-28.1,31-46.9,45.5V281.7c-12.4-0.7-24.8-1.2-37.1-1.4v173.2c59.1-30.4,126.9-102.2,153.9-158.1
									c-12-2.2-24-4.1-36.1-5.8C464.1,304.3,452,320.6,438.3,336.4"/>
							</g>
						</g>
						<g>
							<g>
								<defs>
									
										<rect id="SVGID_00000131343364991421646520000007837555831003969667_" x="-475.2" y="-138.1" width="1619.2" height="1047.7"/>
								</defs>
								<clipPath id="SVGID_00000161608604763976124900000012443073738433135488_">
									<use xlink:href="#SVGID_00000131343364991421646520000007837555831003969667_"  style="overflow:visible;"/>
								</clipPath>
								<path style="clip-path:url(#SVGID_00000161608604763976124900000012443073738433135488_);fill:#0050B2;" d="M135.5,283.1
									c-2.4-11.2-4.8-22.4-7.1-33.6c1.9-0.4,3.9-0.8,5.8-1.2c1.5,7.3,2.9,14.6,4.4,22c1.4-7.9,2.9-15.8,4.3-23.7
									c1.8-0.4,3.5-0.7,5.3-1.1c1.4,7.3,2.9,14.7,4.3,22c1.5-7.9,3-15.8,4.4-23.7c1.9-0.4,3.7-0.7,5.6-1
									c-2.4,12.1-4.8,24.3-7.2,36.4c-1.9,0.4-3.8,0.7-5.7,1.1c-1.4-7.2-2.8-14.3-4.2-21.5c-1.4,7.7-2.8,15.5-4.2,23.2
									C139.2,282.3,137.4,282.7,135.5,283.1"/>
							</g>
						</g>
						<g>
							<g>
								<defs>
									
										<rect id="SVGID_00000128470606111182253160000008960885520006886302_" x="-475.2" y="-138.1" width="1619.2" height="1047.7"/>
								</defs>
								<clipPath id="SVGID_00000150801553672974052910000009532021050260469679_">
									<use xlink:href="#SVGID_00000128470606111182253160000008960885520006886302_"  style="overflow:visible;"/>
								</clipPath>
								<path style="clip-path:url(#SVGID_00000150801553672974052910000009532021050260469679_);fill:#0050B2;" d="M170.4,241.3
									c2.5-0.4,5.1-0.8,7.6-1.2c2.4,11.3,4.7,22.7,7.1,34c-1.9,0.3-3.9,0.6-5.8,0.9c-0.4-2.1-0.8-4.2-1.2-6.4
									c-2.6,0.4-5.2,0.8-7.8,1.3c-0.4,2.3-0.8,4.5-1.2,6.8c-1.8,0.3-3.7,0.6-5.6,1C165.7,265.6,168,253.4,170.4,241.3
									 M171.2,264.3c1.9-0.3,3.8-0.6,5.7-1c-1-4.8-1.9-9.7-2.9-14.5C173.1,254,172.2,259.2,171.2,264.3"/>
							</g>
						</g>
						<g>
							<g>
								<defs>
									
										<rect id="SVGID_00000062194600007340853190000003245398228026187138_" x="-475.2" y="-138.1" width="1619.2" height="1047.7"/>
								</defs>
								<clipPath id="SVGID_00000064339481170353991570000003627546237022855563_">
									<use xlink:href="#SVGID_00000062194600007340853190000003245398228026187138_"  style="overflow:visible;"/>
								</clipPath>
								<path style="clip-path:url(#SVGID_00000064339481170353991570000003627546237022855563_);fill:#0050B2;" d="M195.5,272.5
									c-1.9,0.3-3.8,0.6-5.7,0.8c0-11.7,0-23.4,0-35.2c1.8-0.3,3.6-0.5,5.3-0.8c1.9-0.3,3.6-0.3,5.2,0s2.9,0.8,4.1,1.6
									c1.2,0.8,2,1.8,2.7,3c0.6,1.2,1,2.7,1,4.4c0,2.1-0.4,4-1.3,5.6c-0.9,1.7-2.1,3.1-3.6,4.4c2.1,4.7,4.1,9.4,6.2,14.1
									c-2.1,0.3-4.2,0.6-6.3,0.8c-1.6-3.9-3.2-7.8-4.8-11.6c-0.3,0.2-0.7,0.4-1,0.5c-0.3,0.2-0.7,0.3-1,0.5
									c-0.2,0.1-0.4,0.2-0.6,0.3C195.5,264.9,195.5,268.7,195.5,272.5 M202.4,247.3c0-1.5-0.6-2.7-1.8-3.6s-2.9-1.2-5.1-0.9
									c0,4.2,0,8.4,0,12.5c0.3-0.1,0.6-0.3,0.8-0.4c1.9-0.9,3.4-2,4.4-3.3C201.9,250.3,202.4,248.9,202.4,247.3"/>
							</g>
						</g>
						<g>
							<g>
								<defs>
									
										<rect id="SVGID_00000124844487457678465200000002323174164943788425_" x="-475.2" y="-138.1" width="1619.2" height="1047.7"/>
								</defs>
								<clipPath id="SVGID_00000065776076134759547640000013621709042991587212_">
									<use xlink:href="#SVGID_00000124844487457678465200000002323174164943788425_"  style="overflow:visible;"/>
								</clipPath>
								<path style="clip-path:url(#SVGID_00000065776076134759547640000013621709042991587212_);fill:#0050B2;" d="M214.6,270
									v-35.2c1.8-0.2,3.7-0.5,5.6-0.7c3,6.9,6.1,13.8,9.1,20.8v-21.8c1.8-0.2,3.7-0.4,5.5-0.6v35.2c-1.8,0.2-3.7,0.4-5.6,0.6
									c-3-7-6.1-13.9-9.1-20.8v21.8C218.2,269.5,216.4,269.8,214.6,270"/>
							</g>
						</g>
						<g>
							<g>
								<defs>
									
										<rect id="SVGID_00000172402694150066816710000016778879168076054439_" x="-475.2" y="-138.1" width="1619.2" height="1047.7"/>
								</defs>
								<clipPath id="SVGID_00000093165443047453989020000008564239232437167792_">
									<use xlink:href="#SVGID_00000172402694150066816710000016778879168076054439_"  style="overflow:visible;"/>
								</clipPath>
								<path style="clip-path:url(#SVGID_00000093165443047453989020000008564239232437167792_);fill:#0050B2;" d="M242.1,267
									v-35.2c5.6-0.6,11.2-1,16.7-1.4c-0.4,1.8-0.7,3.7-1.1,5.5c-3.3,0.3-6.6,0.6-10,0.8c0,2.9,0,5.9,0,8.8
									c2.8-0.2,5.5-0.5,8.3-0.7v5.6c-2.8,0.2-5.5,0.5-8.3,0.7c0,3.3,0,6.6,0,9.9c3.7-0.3,7.4-0.6,11.1-0.9v5.4
									C253.4,265.9,247.8,266.5,242.1,267"/>
							</g>
						</g>
						<g>
							<g>
								<defs>
									
										<rect id="SVGID_00000101819899569381718440000003250492646981016206_" x="-475.2" y="-138.1" width="1619.2" height="1047.7"/>
								</defs>
								<clipPath id="SVGID_00000030464540817675986510000008118878325919764655_">
									<use xlink:href="#SVGID_00000101819899569381718440000003250492646981016206_"  style="overflow:visible;"/>
								</clipPath>
								<path style="clip-path:url(#SVGID_00000030464540817675986510000008118878325919764655_);fill:#0050B2;" d="M270.7,264.7
									c-1.9,0.1-3.8,0.3-5.7,0.4v-35.2c1.8-0.1,3.6-0.2,5.4-0.4c1.9-0.1,3.6,0,5.2,0.4s3,1,4.1,1.9c1.2,0.9,2,2,2.7,3.3
									c0.6,1.3,1,2.8,1,4.5c0,2.1-0.4,4-1.3,5.5c-0.9,1.6-2.1,3-3.6,4.1c2.1,4.8,4.2,9.7,6.2,14.6c-2.1,0.1-4.2,0.2-6.3,0.3
									c-1.6-4-3.3-8-4.9-12c-0.3,0.1-0.7,0.3-1,0.5c-0.3,0.1-0.7,0.3-1,0.4c-0.2,0.1-0.4,0.1-0.6,0.2L270.7,264.7L270.7,264.7z
									 M277.6,239.9c0-1.5-0.6-2.8-1.8-3.7s-2.9-1.3-5.2-1.3v12.5c0.3-0.1,0.6-0.2,0.9-0.4c1.9-0.8,3.4-1.8,4.5-3
									C277.1,243,277.6,241.6,277.6,239.9"/>
							</g>
						</g>
						<g>
							<g>
								<defs>
									
										<rect id="SVGID_00000050639782748509058940000008855872538492648636_" x="-475.2" y="-138.1" width="1619.2" height="1047.7"/>
								</defs>
								<clipPath id="SVGID_00000111883171481243465960000014831512411622107062_">
									<use xlink:href="#SVGID_00000050639782748509058940000008855872538492648636_"  style="overflow:visible;"/>
								</clipPath>
								<path style="clip-path:url(#SVGID_00000111883171481243465960000014831512411622107062_);fill:#0050B2;" d="M321.9,251.1
									c0,1.7-0.4,3.2-1.1,4.6s-1.7,2.6-3,3.7s-2.8,1.9-4.7,2.5c-1.8,0.6-3.8,1-6,1c-1.7,0-3.3,0.1-4.9,0.1v-35.2
									c1.6,0,3.2-0.1,4.8-0.1c3.8-0.1,6.8,0.7,9.1,2.3c2.3,1.7,3.4,3.9,3.4,6.7c0,1.2-0.3,2.3-0.9,3.4c-0.6,1.2-1.4,2.1-2.4,3
									c1.8,0.6,3.1,1.5,4.1,2.9C321.4,247.5,321.9,249.2,321.9,251.1 M314,237.4c0-1.3-0.6-2.3-1.7-3s-2.6-1.1-4.5-1.2v9.7
									c0.3-0.1,0.6-0.1,0.9-0.2c1.7-0.4,3-1.1,3.9-2C313.6,239.7,314,238.6,314,237.4 M309.5,247.7c-0.6,0.1-1.2,0.3-1.7,0.5v9.5
									c2.4,0,4.4-0.7,6-1.9s2.4-2.7,2.4-4.5c0-1.6-0.6-2.7-2-3.3C313,247.3,311.4,247.2,309.5,247.7"/>
							</g>
						</g>
						<g>
							<g>
								<defs>
									
										<rect id="SVGID_00000013171379926747768190000018176511094415361924_" x="-475.2" y="-138.1" width="1619.2" height="1047.7"/>
								</defs>
								<clipPath id="SVGID_00000098913054158994704590000011090160823780725915_">
									<use xlink:href="#SVGID_00000013171379926747768190000018176511094415361924_"  style="overflow:visible;"/>
								</clipPath>
								<path style="clip-path:url(#SVGID_00000098913054158994704590000011090160823780725915_);fill:#0050B2;" d="M332.9,262.6
									c-1.9,0-3.8,0-5.7,0v-35.2c1.8,0,3.6,0,5.4,0c1.9,0,3.6,0.2,5.2,0.7s3,1.2,4.1,2.2c1.2,0.9,2,2.1,2.7,3.4
									c0.6,1.3,1,2.9,1,4.6c0,2.1-0.4,3.9-1.3,5.4s-2.1,2.8-3.6,3.9c2.1,5,4.2,10,6.2,14.9c-2.1,0-4.2,0-6.3,0
									c-1.6-4.1-3.3-8.2-4.9-12.3c-0.3,0.1-0.7,0.3-1,0.4s-0.7,0.2-1,0.3c-0.2,0-0.4,0.1-0.6,0.2L332.9,262.6L332.9,262.6z
									 M339.8,238.3c0-1.5-0.6-2.8-1.8-3.8c-1.2-1-2.9-1.5-5.2-1.6v12.5c0.3-0.1,0.6-0.2,0.9-0.3c1.9-0.7,3.4-1.6,4.5-2.7
									S339.8,239.9,339.8,238.3"/>
							</g>
						</g>
						<g>
							<g>
								<defs>
									
										<rect id="SVGID_00000072237919236594600930000016211002959715082417_" x="-475.2" y="-138.1" width="1619.2" height="1047.7"/>
								</defs>
								<clipPath id="SVGID_00000088830966783879986850000004449540136289565087_">
									<use xlink:href="#SVGID_00000072237919236594600930000016211002959715082417_"  style="overflow:visible;"/>
								</clipPath>
								<path style="clip-path:url(#SVGID_00000088830966783879986850000004449540136289565087_);fill:#0050B2;" d="M361.4,263.4
									c-3.4-0.1-6.1-1.7-8.1-4.7c-2-3-3-7.6-3-13.6s1-10.5,3-13.5c2-3,4.7-4.4,8.1-4.3s6.1,1.7,8.1,4.8c2,3.1,3,7.7,3,13.7
									s-1,10.5-3,13.4C367.6,262.1,364.9,263.5,361.4,263.4 M361.4,257.9c1.7,0,3-1,3.9-3c1-2.1,1.4-5.2,1.4-9.4
									c0-4.2-0.5-7.3-1.4-9.5c-1-2.1-2.3-3.2-3.9-3.3c-1.7,0-3,1-3.9,3c-1,2.1-1.4,5.2-1.4,9.4c0,4.2,0.5,7.3,1.4,9.5
									C358.5,256.8,359.8,257.9,361.4,257.9"/>
							</g>
						</g>
						<g>
							<g>
								<defs>
									
										<rect id="SVGID_00000049220384982750627810000003088454922690065282_" x="-475.2" y="-138.1" width="1619.2" height="1047.7"/>
								</defs>
								<clipPath id="SVGID_00000161605694605137077820000014508648836502580910_">
									<use xlink:href="#SVGID_00000049220384982750627810000003088454922690065282_"  style="overflow:visible;"/>
								</clipPath>
								<path style="clip-path:url(#SVGID_00000161605694605137077820000014508648836502580910_);fill:#0050B2;" d="M378.2,237
									c0-1.3,0.2-2.5,0.7-3.6s1.1-2,1.9-2.8c0.8-0.7,1.7-1.3,2.8-1.7c1.1-0.4,2.2-0.6,3.4-0.5c2.1,0.1,4,0.8,5.5,2
									c1.6,1.2,2.7,3.2,3.6,5.8c-1.6,0.9-3.3,1.8-4.9,2.6c-0.4-1.5-1-2.6-1.7-3.6s-1.6-1.4-2.8-1.5c-0.9,0-1.6,0.2-2.1,0.8
									c-0.5,0.6-0.8,1.3-0.8,2.2c0,0.9,0.3,1.8,0.8,2.8c0.6,0.9,1.4,1.8,2.5,2.7c1.2,1,2.5,2,3.8,3c1.8,1.4,3.1,3,4,4.6
									s1.3,3.4,1.3,5.3c0,1.4-0.2,2.6-0.7,3.8c-0.5,1.2-1.2,2.1-2.1,3c-0.9,0.8-1.9,1.4-3,1.8s-2.4,0.6-3.6,0.6
									c-2.4-0.1-4.4-0.9-6.2-2.3s-3-3.6-3.9-6.4c1.6-0.9,3.2-1.8,4.8-2.6c0.5,1.8,1.2,3.2,2,4.2c0.9,1.1,2,1.6,3.5,1.7
									c1.1,0,2-0.3,2.7-1s1-1.6,1-2.6c0-1.1-0.3-2.1-1-3.1c-0.6-0.9-1.5-1.8-2.5-2.7c-1.4-1.1-2.8-2.2-4.2-3.3
									c-1.8-1.4-3-2.9-3.7-4.5C378.5,240.1,378.2,238.5,378.2,237"/>
							</g>
						</g>
						<g>
							<g>
								<defs>
									
										<rect id="SVGID_00000142874115751513264030000016833511510059357852_" x="-475.2" y="-138.1" width="1619.2" height="1047.7"/>
								</defs>
								<clipPath id="SVGID_00000093148086368803114530000007605927593348691636_">
									<use xlink:href="#SVGID_00000142874115751513264030000016833511510059357852_"  style="overflow:visible;"/>
								</clipPath>
								<path style="clip-path:url(#SVGID_00000093148086368803114530000007605927593348691636_);fill:#0050B2;" d="M402.2,265.1
									c-0.8,0-1.5-0.4-2.1-1s-0.9-1.3-0.9-2.2c0-0.8,0.3-1.5,0.9-2c0.6-0.6,1.3-0.8,2.1-0.7c0.8,0,1.5,0.4,2.1,1s0.9,1.3,0.9,2.2
									c0,0.8-0.3,1.5-0.9,2C403.7,264.9,403,265.2,402.2,265.1"/>
							</g>
						</g>
						<g>
							<g>
								<defs>
									
										<rect id="SVGID_00000124133419239090428130000007019529371562767035_" x="-475.2" y="-138.1" width="1619.2" height="1047.7"/>
								</defs>
								<clipPath id="SVGID_00000045617772743383683430000011819895026184948647_">
									<use xlink:href="#SVGID_00000124133419239090428130000007019529371562767035_"  style="overflow:visible;"/>
								</clipPath>
								<path style="clip-path:url(#SVGID_00000045617772743383683430000011819895026184948647_);fill:#0050B2;" d="M428.6,267.5
									c-3.4-0.3-6.1-2.1-8.1-5.2c-2-3.2-3-7.8-3-13.8s1-10.5,3-13.3s4.8-4.1,8.3-3.7c2.3,0.2,4.3,1.1,6,2.7c1.7,1.5,3,3.7,3.8,6.5
									c-1.7,0.9-3.4,1.8-5.1,2.7c-0.4-2-1.1-3.6-1.8-4.7c-0.8-1.1-1.8-1.7-2.9-1.8c-1.7-0.1-3,0.8-4,2.8s-1.5,5.1-1.5,9.3
									c0,4.2,0.5,7.4,1.5,9.6s2.3,3.4,3.9,3.5c1.5,0.1,2.7-0.5,3.7-1.9s1.6-3.6,1.8-6.7c-1.8-0.2-3.6-0.4-5.4-0.5v-5.6
									c3.7,0.4,7.4,0.7,11.2,1.2v2.4c0,6-1,10.3-3,13.1C434.8,266.6,432.1,267.8,428.6,267.5"/>
							</g>
						</g>
						<g>
							<g>
								<defs>
									
										<rect id="SVGID_00000106865027410612062860000014356094513604227742_" x="-475.2" y="-138.1" width="1619.2" height="1047.7"/>
								</defs>
								<clipPath id="SVGID_00000013888964207636787810000005215155649889648775_">
									<use xlink:href="#SVGID_00000106865027410612062860000014356094513604227742_"  style="overflow:visible;"/>
								</clipPath>
								<path style="clip-path:url(#SVGID_00000013888964207636787810000005215155649889648775_);fill:#0050B2;" d="M450.9,234.2
									c2.5,0.3,5.1,0.6,7.6,0.9c2.4,12,4.7,24,7.1,36.1c-1.9-0.3-3.9-0.5-5.8-0.7c-0.4-2.3-0.8-4.5-1.2-6.7
									c-2.6-0.3-5.2-0.6-7.8-1c-0.4,2.1-0.8,4.3-1.2,6.4c-1.9-0.2-3.7-0.4-5.6-0.6C446.2,257.1,448.5,245.7,450.9,234.2
									 M451.7,257.5c1.9,0.2,3.8,0.5,5.7,0.7c-1-5.1-1.9-10.2-2.9-15.4C453.6,247.7,452.7,252.6,451.7,257.5"/>
							</g>
						</g>
						<g>
							<g>
								<defs>
									
										<rect id="SVGID_00000010284898013031720960000018058694952499728289_" x="-475.2" y="-138.1" width="1619.2" height="1047.7"/>
								</defs>
								<clipPath id="SVGID_00000006671532472303434150000004405232138976314006_">
									<use xlink:href="#SVGID_00000010284898013031720960000018058694952499728289_"  style="overflow:visible;"/>
								</clipPath>
								<path style="clip-path:url(#SVGID_00000006671532472303434150000004405232138976314006_);fill:#0050B2;" d="M483.9,273.9
									c-0.6-0.1-1.2-0.2-1.7-0.3c-1.9-8.1-3.8-16.3-5.8-24.4v23.5c-1.8-0.3-3.7-0.5-5.5-0.8v-35.2c2.4,0.3,4.8,0.7,7.1,1
									c1.7,7.1,3.4,14.2,5.1,21.2c1.7-6.6,3.4-13.1,5.1-19.7c2.4,0.4,4.7,0.7,7,1.1v35.2c-1.8-0.3-3.6-0.6-5.5-0.9v-23.5
									C487.8,258.8,485.8,266.4,483.9,273.9"/>
							</g>
						</g>
						<g>
							<g>
								<defs>
									
										<rect id="SVGID_00000144303839129642783860000016605959476486649231_" x="-475.2" y="-138.1" width="1619.2" height="1047.7"/>
								</defs>
								<clipPath id="SVGID_00000183950670016688110900000012414539439879565995_">
									<use xlink:href="#SVGID_00000144303839129642783860000016605959476486649231_"  style="overflow:visible;"/>
								</clipPath>
								<path style="clip-path:url(#SVGID_00000183950670016688110900000012414539439879565995_);fill:#0050B2;" d="M502.4,276.9
									v-35.2c5.5,1,11.1,2,16.6,3c-0.4,1.8-0.7,3.5-1.1,5.2c-3.3-0.6-6.6-1.2-9.9-1.8v8.8c2.7,0.5,5.5,1,8.2,1.5v5.6
									c-2.7-0.5-5.5-1-8.2-1.5v9.9c3.6,0.6,7.3,1.3,11,2v5.4C513.6,278.9,508,277.9,502.4,276.9"/>
							</g>
						</g>
						<g>
							<g>
								<defs>
									
										<rect id="SVGID_00000166648644394690576870000016997120039439227041_" x="-475.2" y="-138.1" width="1619.2" height="1047.7"/>
								</defs>
								<clipPath id="SVGID_00000004536390563510239940000015380907260872341401_">
									<use xlink:href="#SVGID_00000166648644394690576870000016997120039439227041_"  style="overflow:visible;"/>
								</clipPath>
								<path style="clip-path:url(#SVGID_00000004536390563510239940000015380907260872341401_);fill:#0050B2;" d="M524,254.4
									c0-1.3,0.2-2.4,0.7-3.5c0.5-1,1.1-1.8,1.8-2.5c0.8-0.6,1.7-1.1,2.8-1.3c1.1-0.2,2.2-0.2,3.4,0c2.1,0.4,3.9,1.4,5.4,2.9
									s2.7,3.6,3.5,6.4c-1.6,0.6-3.2,1.2-4.8,1.9c-0.4-1.5-0.9-2.8-1.6-3.8c-0.7-1-1.6-1.6-2.8-1.9c-0.9-0.2-1.6,0-2.1,0.5
									s-0.8,1.2-0.8,2c0,0.9,0.3,1.9,0.8,2.9s1.4,2,2.5,3.1c1.2,1.2,2.5,2.4,3.7,3.6c1.8,1.7,3.1,3.4,4,5.2
									c0.9,1.7,1.3,3.6,1.3,5.4c0,1.4-0.2,2.6-0.7,3.7s-1.2,1.9-2,2.6c-0.9,0.7-1.8,1.2-3,1.4c-1.2,0.3-2.4,0.3-3.6,0
									c-2.4-0.5-4.4-1.6-6.1-3.2c-1.7-1.7-3-4-3.9-7c1.6-0.6,3.1-1.3,4.7-1.9c0.5,1.8,1.2,3.4,2,4.5c0.8,1.2,2,1.9,3.4,2.2
									c1.1,0.2,2,0,2.7-0.6c0.7-0.6,1-1.4,1-2.4c0-1.1-0.3-2.2-1-3.2c-0.6-1-1.5-2.1-2.5-3.1c-1.4-1.3-2.8-2.6-4.1-4
									c-1.8-1.7-3-3.4-3.7-5C524.3,257.5,524,255.9,524,254.4"/>
							</g>
						</g>
					</g>
				</g>
			</g>
		</g>
	</g>
</g>
</svg>
